<svg width="180" height="82" viewBox="0 0 180 82" fill="none" xmlns="http://www.w3.org/2000/svg">
<path d="M179.3 79.7C177.9 79 177 77.9 176.1 76.7C174.6 74.7 172.6 73.2 170.7 71.7C170.2 71.3 169.7 71.1 169.2 70.7C167.6 69.5 165.7 68.7 164.7 66.6C163.5 63.9 161.5 61.7 159 60C157.5 59 156.7 57.6 156.8 55.8C156.8 55 156.7 54.3 156.1 53.8C154.6 52.7 154.2 51.1 153.8 49.5C153.6 48.7 153.3 48 153 47.3C152.6 46.5 152.1 45.8 151.6 45.1C150.9 44.2 150.2 43 149.2 42.5C148.4 42.1 147.1 42.5 146.1 42.6C145.6 42.7 145.1 43 144.6 43.1C143.6 43.3 142.7 43.6 141.7 43.7C140.5 43.8 139.4 43.3 138.8 42.3C138.3 41.6 138 40.8 137.5 40C136.9 39 136.4 38 135.8 37.1C135.3 36.3 134.8 35.4 134.2 34.6C133 33 132.4 31 130.6 29.9C128.8 28.8 127.3 27.3 126.6 25.1C126.2 23.9 125.2 23.8 124.2 24.8C122.6 26.5 121 28.2 119.4 29.9C119 30.3 118.6 30.8 118.2 31.2C117.8 31.7 117.4 31.7 116.8 31.6C114.2 30.9 112.1 29.4 110.1 27.7C108.5 26.4 106.9 25.1 105.3 23.8C104.5 23.2 103.2 23 102.8 22.2C101.9 20.6 100.5 19.9 99 19.1C98.2 18.6 97.7 18 97.8 17C97.8 16 97.6 15 96.8 14.3C96.2 13.8 95.6 13.4 95 13C93.7 12.1 92.6 10.8 92.1 9.30001C91.8 8.50001 91.5 8.10001 90.8 7.60001C89.4 6.50001 87.8 5.50001 86.7 4.20001C85.6 2.90001 84.2 2.20001 82.9 1.40001C81.6 0.600009 80.8 0.800007 79.6 1.80001C78.9 2.50001 78.3 3.30001 77.5 4.00001C76.6 4.90001 75.7 5.90001 74.6 6.40001C73.4 7.00001 72.4 7.80001 71.4 8.70001C70.1 9.90001 68.7 11 67.1 11.9C64.6 13.3 62 14.5 59.8 16.3C58.7 17.3 57.5 18.1 55.9 18.2C54.9 18.2 54.4 18.9 54.2 19.9C54 20.8 53.8 21.7 53.4 22.6C53 23.4 52.7 23.8 52.3 23.9C52.2 24.1 52.1 24.3 52 24.5C52 24.6 51.9 24.7 51.9 24.7C51.8 24.8 51.8 24.9 51.7 25C50.1 28.1 47.5 30.9 44.3 32.5C44.1 32.8 43.8 33.2 43.4 33.6C41.5 35.5 39.1 36.4 36.6 37.1C36.4 37.2 36.2 37.2 36 37.2C35.5 37.1 35 36.9 34.5 36.8C32.6 36.4 31.9 36.6 30.9 38.3C30.3 39.3 29.7 40.2 29.1 41.2C28.9 41.6 28.7 41.8 28.4 41.9C27.3 43.8 25.9 45.7 24.3 47.3C24 47.6 23.8 48 23.5 48.3C22.5 49.6 21.5 51 20.3 52.2C19.4 53.1 18.7 53.9 18.7 55.3C18.7 55.8 18.4 56.4 18.1 56.7C16.7 58.2 15.3 59.7 13.8 61.1C12.2 62.6 10.4 64 8.79998 65.6C6.89998 67.5 4.99998 69.5 2.79998 71.2C1.99998 71.8 1.49997 72.7 0.899974 73.5C0.799974 73.7 0.899974 74 0.899974 74.2C1.09997 74.2 1.39999 74.2 1.59999 74.1C2.79999 73.2 3.99998 72.2 5.19998 71.3C7.39998 69.5 9.29999 67.3 11.6 65.6C12.3 65.1 13 64.5 13.6 64C15.2 62.6 16.7 61.3 18.2 59.9C18.9 59.3 19.4 58.6 19.8 57.7C20.7 55.7 21.2 53.5 23.4 52.3C23.5 52.2 23.6 52.1 23.7 52C24.9 50.4 26.1 48.8 27.2 47.2C28.9 44.9 30.6 42.6 32.3 40.3C32.7 39.7 33.1 39.4 33.9 39.5C36.1 39.7 38.1 39 40.2 38.6C41.2 38.4 42 37.7 42.6 37C43 36.5 43.3 35.9 44.1 35.9C44.4 35.9 44.7 35.6 44.9 35.4C46 34.2 47.2 33 48.3 31.8C49.8 30.2 51.2 28.5 52.8 27C54.2 25.7 55.4 24.4 55.6 22.4C55.7 21.4 56.4 20.8 57.4 20.5C58.4 20.1 59.4 19.5 60.4 18.9C61.5 18.2 62.6 17.5 63.7 16.8C66.6 15 69.5 13.3 72 11C72.9 10.2 74 9.50001 75.1 8.80001C76.5 7.90001 78.1 7.00001 79.2 5.60001C79.5 5.20001 80 4.90001 80.4 4.50001C81 4.10001 81.4 4.20001 81.6 4.90001C82.1 7.00001 82.6 9.10001 83 11.1C83.3 12.7 83.5 14.3 83.8 15.8C84 16.8 84.2 17.7 83.5 18.6C83 19.3 82.8 20.2 83.3 21.2C83.7 22.1 83.7 23.1 83.8 24.1C83.8 24.6 83.6 25.2 83.2 25.5C81.7 26.7 80.2 27.9 78.6 29C77.9 29.6 76.9 30 76.3 30.6C75.3 31.7 73.9 32.3 72.7 33.1C70.7 34.5 68.6 35.9 66.6 37.3C65.9 37.8 65.3 38.6 64.7 39.3C64.3 39.8 64.3 40.3 64.7 40.8C65.2 41.4 65.9 41.9 66.5 42.3C66.9 42.6 67.4 42.5 67.8 42.8C69.2 43.6 69.3 44.2 67.9 45C67.6 45.2 67.3 45.3 67 45.4C66 45.9 65.8 46.6 66.3 47.5C66.5 47.9 66.8 48.3 67.2 48.6C67.8 49.2 67.8 49.7 67.4 50.4C67.1 50.9 66.8 51.3 66.6 51.8C66.1 52.8 65.6 53.8 65.2 54.9C65 55.4 65.1 55.9 65.6 56.1C65.9 56.2 66.4 55.9 66.6 55.6C67.5 54.3 68.3 52.9 69.2 51.5C69.8 50.5 70.5 49.5 71.8 49.1C72.3 48.9 72.7 48.6 73.1 48.2C73.8 47.5 74.7 47.3 75.7 47.3C77 47.4 78.2 47.1 79.1 46C79.6 45.4 80.3 45 81 44.5C81.3 44.3 81.6 44.1 81.9 44.1C83.6 44.1 85.2 44 86.9 44.1C88.7 44.2 90.3 44.1 91.5 42.5C91.8 42.1 92.2 41.9 92.6 41.6C94.4 40.5 96.2 39.5 98 38.5C98.4 38.3 99 38.1 99.5 38.2C100.4 38.2 101.3 38.5 102.2 38.2C102.9 38 103.6 38.5 103.7 39.2C103.8 39.6 103.5 40.2 103.1 40.5C102.6 41 101.9 41.6 102.1 42.4C102.3 43.8 101.6 44.8 101 45.9C100.1 47.6 99.2 49.3 98.2 51C97.7 51.8 96.8 52.3 96.3 53.1C95.1 55 93.5 56.2 91.1 56.2C89.8 56.2 89 56.9 88.6 58.1C88.3 59 87.8 59.8 86.7 60C86.4 60.1 86.2 60.4 85.9 60.6C84.3 61.6 84.3 63.6 83.1 64.9C83 65 83.2 65.5 83.2 65.9C83.5 65.8 83.8 65.8 84 65.6C84.5 65.1 85 64.6 85.5 64C86.1 63.3 86.5 62.3 87.2 61.9C88.4 61.1 89.3 60.1 90.1 59C90.6 58.4 91.1 58.1 91.9 58C93.9 57.9 95.4 56.9 96.8 55.5C100.2 52 102.6 47.9 104.3 43.3C104.8 41.9 105.3 40.5 106.2 39.4C106.7 38.8 107.8 38.6 108.7 38.3C109.1 38.1 109.5 38 109.8 37.8C111.3 36.8 113 36.5 114.7 36.1C116.2 35.8 117.6 35.1 118.7 33.9C119.9 32.5 121.3 31.3 122.7 30C123.1 29.6 123.6 29.2 124.1 28.9C124.2 28.8 124.7 29 124.7 29.1C125.2 30.6 125.7 32.1 125 33.8C124.8 34.4 124.7 35.1 124.7 35.7C124.7 36.6 124.6 37.4 123.7 38C123.2 38.3 122.9 38.7 123 39.5C123 40.8 122.5 41.8 121.2 42.3C120.3 42.7 119.7 43.3 119.6 44.4C119.5 45.1 119.2 45.7 119.1 46.3C118.9 47.3 118.7 48.4 117.8 49.2C117.7 49.3 117.5 49.5 117.5 49.7C117.5 49.9 117.6 50.2 117.7 50.4C117.7 50.5 118.1 50.5 118.2 50.3C118.8 49.7 119.6 49.2 119.8 48.3C120.1 46.7 120.9 45.4 122.3 44.5C122.9 44.1 123.3 43.9 123.9 44.2C125 44.7 126 44.5 127.1 43.9C128.3 43.2 129.7 42.9 131 42.3C131.6 42.6 132.2 42.9 132.8 43.2C133.6 43.7 134.4 44.3 135.3 44.8C135.9 45.2 136 45.5 135.4 46C133.8 47.4 132.1 48.7 130.5 50.1C130.3 50.2 130.2 50.5 130.1 50.7C130.4 50.8 130.7 50.9 130.9 51C131.1 51 131.4 50.9 131.6 50.7C132.7 50 133.8 49.2 134.9 48.4C136.8 47 138.6 45.7 141.1 46.6C141.3 46.7 141.6 46.7 141.9 46.6C142.8 46.3 143.5 46.6 144.3 47.2C145.1 47.8 145.7 48.4 146 49.4C146.2 50.2 146.4 51 146.7 51.7C147.4 53.5 148.2 55.2 149.1 56.9C149.3 57.4 149.9 57.9 150.4 58C151.2 58.2 151.5 58.7 151.9 59.2C154.4 62.2 157.1 64.9 160.4 67C161.4 67.6 162.3 68.5 163.2 69.3C164 70 164.8 70.7 165.7 71.3C167.9 72.8 170.1 74.2 172.3 75.7C172.8 76 173.2 76.5 173.6 76.9C174.5 77.8 175.2 78.9 176.2 79.7C177.1 80.4 178.1 80.8 179.1 81.3C179.3 81.4 179.6 81.2 179.8 81.1C179.5 80.3 179.5 79.9 179.3 79.7Z" fill="black" fill-opacity="0.28"/>
<path d="M64.4 57.9C64.2 58.2 64.1 58.5 64 58.7C63.3 60.1 62.7 61.5 62 62.8C61.8 63.3 61.5 63.7 61.1 64.1C60 65.1 58.9 66.1 57.7 67.2C57.6 67.3 57.5 67.4 57.4 67.5C56.9 67.7 56 68.2 55.9 68.1C55.2 67.4 56.2 67.1 56.5 66.7C57 65.9 57.6 65.2 58.3 64.6C60.4 62.9 61.5 60.5 63.1 58.4C63.3 58.1 63.6 58 63.9 57.8C64 57.6 64.2 57.8 64.4 57.9Z" fill="black" fill-opacity="0.28"/>
</svg>
